<mxfile host="app.diagrams.net" modified="2022-03-04T07:59:02.014Z" agent="5.0 (Windows NT 10.0; Win64; x64) AppleWebKit/537.36 (KHTML, like Gecko) Chrome/93.0.4577.82 Safari/537.36" etag="P58GPArTwvfr8D1KMLVK" version="16.6.5" type="github" pages="2">
  <diagram id="Lho9byezX2mm3QQoCuHV" name="第 1 页">
    <mxGraphModel dx="1422" dy="762" grid="1" gridSize="10" guides="1" tooltips="1" connect="1" arrows="1" fold="1" page="1" pageScale="1" pageWidth="827" pageHeight="1169" math="0" shadow="0">
      <root>
        <mxCell id="0" />
        <mxCell id="1" parent="0" />
        <mxCell id="OPJhAnzrmm5_3PIyidWa-4" value="" style="edgeStyle=orthogonalEdgeStyle;rounded=0;orthogonalLoop=1;jettySize=auto;html=1;" parent="1" source="OPJhAnzrmm5_3PIyidWa-1" target="OPJhAnzrmm5_3PIyidWa-2" edge="1">
          <mxGeometry relative="1" as="geometry" />
        </mxCell>
        <mxCell id="OPJhAnzrmm5_3PIyidWa-1" value="readFile-getAppNameFromPid-reportFakeValues-getMetrics-getDeviceHeight-getDeviceHeight-configRequestCreator-intoTarget-into-displayImage" style="rounded=0;whiteSpace=wrap;html=1;" parent="1" vertex="1">
          <mxGeometry x="720" y="330" width="280" height="60" as="geometry" />
        </mxCell>
        <mxCell id="OPJhAnzrmm5_3PIyidWa-5" value="" style="edgeStyle=orthogonalEdgeStyle;rounded=0;orthogonalLoop=1;jettySize=auto;html=1;" parent="1" source="OPJhAnzrmm5_3PIyidWa-2" target="OPJhAnzrmm5_3PIyidWa-3" edge="1">
          <mxGeometry relative="1" as="geometry" />
        </mxCell>
        <mxCell id="OPJhAnzrmm5_3PIyidWa-2" value="readFile-getAppNameFromPid-reportFakeValues-getMetrics" style="rounded=0;whiteSpace=wrap;html=1;" parent="1" vertex="1">
          <mxGeometry x="720" y="460" width="280" height="60" as="geometry" />
        </mxCell>
        <mxCell id="OPJhAnzrmm5_3PIyidWa-3" value="BstUtils.readFile-getAppNameFromPid-reportFakeValues-getMetrics" style="rounded=0;whiteSpace=wrap;html=1;" parent="1" vertex="1">
          <mxGeometry x="720" y="600" width="280" height="60" as="geometry" />
        </mxCell>
        <mxCell id="OPJhAnzrmm5_3PIyidWa-6" value="" style="shape=image;verticalLabelPosition=bottom;labelBackgroundColor=default;verticalAlign=top;aspect=fixed;imageAspect=0;image=data:image/png,iVBORw0KGgoAAAANSUhEUgAAAmYAAADpCAYAAACOVfuuAAAgAElEQVR4Ae19PW7cTLDtXeIXGfBunBvwEhReQJGg7GVKpB0oMLQA42YOHfKhqru6T/2QnJFGMyPpBMZwyO76OXW6qtgci//z59+yHPrv//7v/w4ee6hMjjscf2JFrMgBcoAcIAfIgc/Ngf85JsBszD43GY7hAseSC+QAOUAOkAPkwOk5wMbsiB1DEvD0BCSmxJQcIAfIAXKAHJgcYGPGxoyPp8kBcoAcIAfIAXLgSjjAxuxKAsG7hXm3QCyIBTlADpAD5MBX5QAbMzZmvEsiB8gBcoAcIAfIgSvhABuzKwnEV70zoN+8KyYHyAFygBwgByYH2JixMeNdEjlADpAD5AA5QA5cCQfYmF1JIHi3MO8WiAWxIAfIAXKAHPiqHGBjxsaMd0nkADlADpAD5AA5cCUcYGN2JYH4qncG9Jt3xeQAOUAOkAPkwOQAGzM2ZrxLIgfIAXKAHCAHyIEr4QAbsysJBO8W5t0CsSAW5AA5QA6QA1+VA2zM2JjxLokcIAfIAXKAHCAHroQDbMyuJBBf9c6AfvOumBwgB8gBcoAcmBxgY8bGjHdJ5AA5QA6QA+QAOXAlHPgEjdnLcvPt13L/Z3abx3beT7ffl/9uX9ZJ+edx+fHtbnk6RdBUltn7d7n/+X25eS5s13Hfl/++zX8/Hv6u27hh2++HX7V/z3fLfz8fl98rc3XeuL5h68r8Y+Nw9PgQF40j4CXYKbYO82VZxWPFD8Qh63gtL9Z4u4+z4+tODDOmoneFcyv+ZxkFX1fnNn2Dx2GdKbYjZrYuluWP+HWqNbdq2zF+cOzbeED8iB85cCgH2JgdkrRDA3AouDJuuwnYKMJRZ2gu1m3IBX/VhlDUpeCvN38bth6C4XuMCRht2z+TwioelY07OlyTVM3v57LOHKcW04jz2rjuT4jhOi+m/+cc8/vhDm6amm+TYy/LDTZqoRnLmF3Gh3PiRV2MMTlADrAx2yimY4GE4jzOHzB3u7jEIgyETDo3xjo7ciFftSEU9e3G5lD94IOz6x3OB4y27Z/6V/Eo7I0y43fd2Rm7ilNH5EjWmePU5kSc18Z1XSGGUe/Vfd+0N/ge4nt1vhR8oY3ra4DYEBty4DAOXKYx0zvj6hGdJWYpRnYdHm9oImxj7NHIj4dH9yizFcBHfUT4Hzzi1PNDpt8Zqoum6f++3DysPcosiiYUHiniZud4rPYP55i/RbBiUQK5jdyIUfdH54DO3jBk/7q+IdNjOnAb12V8sDXoqh7HHhYLfBQY7cBrYoP3OcYlNU2jcCLmxS6m+Dm4gXzz8wR3ryNgYjukQ1azf58HGH+QGTC2x84uni5G3beg3ydDkK/4eExNx5/IPxmL5xxmuJ6a/Lkrhr4V2I8YWXwR/2irl+X94jXiQQ6QA5+DAxdpzJ5uoeBqgrfvLRHjb0u0qI0diZz0W9GbyVyLFjRkQtR2znRI4FoxsmbCFbpwzRoStGmSPxfuuIPiZZtus3ej8MSiHHyKDcLTs/3+LNuUbejkDUXdy+y/8wnYN8yi3S/LU/E7uYa7+dp06rkhMxTqP4/LzfgdXYy1j1kVl2T/KPoeE4eH41/wGRuRLqvxDZpffBQXxz+/jN8lOp0qy9s0OZWxjb+hdLIwhhv6V+U/38FvHBHjaIdvSvfWcN2YofzOwRGjzgXghti8HtM8f/rIa8SCHCAHPi4HLtKYecJggcrFwN2lx8JTFDhXtPR6IdOatV5U3RwsdFY0Sr0SdLS9kyDMd7KTvbVtik/S6YuaNgjYFJithU3ZhtrWVASdL2hrO66L71wMWS/KsHHiFzbNdj40bc6WPiZglJqmIdfHCe1KPuvOYG8mRf5Oo6CybIza4xtR4zrqbOe8TTbOGk67aag45mQhLhv61+VPvGUM4uH0FLyaMtd8QdkyBnfW8Fp189Suexv8nKmf54kFOUAOfB4OXKYx0wICuw5jN6go3Dq2F24sQiuNSE7kK0UDZOEcPB5ERxuGXiFBIRvkyvwsD+cU/pr8SqfIhmZsNCLWGOhclN+Imm3oBC7kuWbL+RJtbd/1ESDYNDBb9R3jbsezmRk+2eO4qnlewQibCrQjxmniAT6Yvv6pjZHEwGHrG5emQ2RM+9uNRPNrNld7PMCEEuQVHJv2hx0+wUV5k/VPPJrP07aMweSAcAnWHsYZ9LTHwICBxcc+hUdjjaOvctz1o2ybV3Iozuf3GVtiQSzIgc/AgfM3ZqnhwEYiFg0rNL04pLl2fRYFV7Q0wRcy5Tw0JW6Oa0Y6ybWwVLs6aDuMhWLuZKs9OGfFNhlX+JplNZ16fuhE+bVNRtwoLzU2Dot1W7WZKgprlN+K8IyV2WGfUb+b72wBv6xxCLs9JrN9ekxQruicTUqXq3GqYxBtjE3f1Cs6p2zU2cas4eltreQ7WRUug2dT/7QL9eJx8z36Z/jYp8pJ3Iw2A46r9smYrH/a2WSIr7NRBLkWI36+6k/oRJz5ndwiB66HA+dvzGKilu/jbrpI1K4ItGKHiVoKxpxf7UxUj0k2iqbqw4LWbBq/MdPr1ly0a9OeJnf8gLq848ci5v1VX6zBcX4LYdDmv8v9Lfz9MYcpyjeitbnTTms6zI82TvS7MU4u2ur/zMFsFDwe87zZ0WMxmsh5PhfpJmvsEO7F5ZWN2fbfy8pYRozUR/PH/V4L8TqUl21Hbvg8GiwfJ4crxmhNv64xu7FAu6J/BU9k7u3d3DkTm1CnfQ9ruPEIdWGs+3GUk5qsnflpfKGDY9i4kQPkwAfjwPkbM3t0YY+ONOlb4SkS8UqDYv+L7ubZFxdXtCAYet50wk6G3CWkOb0JGI9onuF/Zeo1s9caHHskd7c8pWLTip3IajszaK/3NzdmJrd9YtOkY4c/VnRbYRq+WsOgOEw7hl/xj/IOv7t/zhe0tR1bDGYj2s6bnQnXHg9vO/xxX9E3fPq13NyGP4w77OvNOMbltY2ZxX/o/e7+6G5sxJLtsGOHjxHFD8Oh3YlO/HGHbsTK9FtjXnG3x9PhijFy+IB+xdU4gnG0mxbj2d1yE5vzfkPgfQnxL9ZwGx/GmY/WxLl4mw3AB9VtdrPp4o4GOUAOfA0OXKAx+xrAcgF9kjhrs/OZmgO8MbjuGLkGFBpVrq3rjhvjw/iQA2/jABszJnxuc+9wQBsEt/v4tkV30aSFO2w7fl/cTtyNvGZbaRtzCDlADpyQA2zMTgjmRQsZ/WBi2OLAeGwIj+G3xvMa+UQOkAPkwEU4wMaMxLsI8djEfuBdN64ZrhlygBwgB96NA2zMSK53IxebLzZf5AA5QA6QA+TAcRxgY8bGjI0ZOUAOkAPkADlADlwJB9iYXUkgeEdx3B0F8SJe5AA5QA6QA5+RA2zM2JjxLokcIAfIAXKAHCAHroQDbMyuJBCfseunT7ybJQfIAXKAHCAHjuMAGzM2ZrxLIgfIAXKAHCAHyIEr4QAbsysJBO8ojrujIF7EixwgB8gBcuAzcuATNGZvf8WMvv+weEfhCPgpX8ujsuyPfPr3Fg590iyG9x7mdy8eviBXX22z81fg/V+837D1Es2t/sFUw/FwLBzGa3b3P8bq3w/ZdMR3Zx4kb03PEefzOzrt3asn9n3FpqwfX1PV3gOK7wCNuGTcGp9W36n52jctrHF6bw27dVm8P3cFF/PTr5UzxKRzFN8tex/ffSs29zxisdE4buW6HT/NX36eIcaMxZfdwWNjdgj595L6hozVpkjnbDQ7UWcoHOuJMTeqqzaEIpaLJyafDVs3/F+3E2XXx6t2/xNb2kvOq+bpLTp1ruLya/lRvBJoG6Pajzfbs/mC9vfTiXZHvzU2BT44B4/L+aNBiNxq3w+JbZT7J3B62BDW0zq3Gp5714fcd+L+nvxD7RN8pHmzxuyPrh38fh7+7PnD64wDOTA5wMbskMQakvoxBNpOoLEgzcC0O13cldgY63z4Ao2ZxEN2VN4Ql80Y9uJ+L0VtNA8tNqkRcNhD/E58/lJ6DaesX/h4+I6lnx85mrm9vW4mzl7usnylxmy3cdV1crfc/PSN2KHYWuz5OflGLIjFOThwmcZMCt+3difnH9FZgm6PRtqYmPzbGJv/4+Fxufk2x7Sk87jc/xT54Xyps3psgfq/LzcPj+XuyZ9/scD4wiBFw+yUz3bXinPM34LsselIOwHeRk3SOgd09sdBq4l4yPSYDtzGdbEv2Bp0zTty74vqNtxvX5aykNp1iFeNXZMtMltRCjZpM2T4Ij6TB9MP77Ozf/jdZOA1b7+X8Z/bQep2PAt3WkyazWgXNt7iG1773n1sPnu9iHHHQDn6fflvPAL0srxthhuM0QYU/UHMlhw3x32TN+1ycf/5uEiTOxqJga+Nj/PFrqx/rCX1EW2FtZ5kdx2wnmpueZ1xzbg5A2Oz3697Tdxix+D1lu9+rsNt5Ax7JDkxWeeD2WSY2qedN1mRe3D9xDcV5yhk1MH4fSYOXKQxe7qFpKAJzL5bsrXvrSDMYtOujwTfH/GMRuJfb7JCUm/Jbsq0AmgF1yfhVqzsmhVyX9hsEfhkPhIyJG4vW+bhnCJpWlIMjQ/6KHp8Yv67PD3/7c/jUX6zM9vQ7Q9FzMv0BcNwaLhEu1+Wp2fDZH6qXsBCdzO+hSKFzUywp7ZbdM8Clce0+Ll4lRybMtruJHxHO9zcgPufx+XmwXCP3Ox2mP8jnsbDevzknY9jio3xpDfMc40I/k03rhMfi6Z7YmSYTQxEH+4WRv2VPLPdX+s8grjnmJk986YCbY+7YL+fX5bf3f9oVxw7kjU0ZnIu2+DxdteRDzIX9A/5Ycx6jvN60rq6fRy+ORzV/hAfaPwMe7Nn2t+w9dejDXPN2nx+EhNy4HIcuEhj5gOOSaJIIphQ8XgUJpxfJdxCZkjMM4nFZqQHptQr17xu9SskaCdbbcY5tW0qJ+mUebbr1hvW8Jit4Yrym/3Zhu5XsHW7yKGt7dgVzxGPLjvusBWFNOnTObP4lHYHm/Mj3+x/Kn7h0Y7g5mwJOvAaHje8zd/IvWhHxsz5F3SKbLluGIte3IGZTRXGpY5r5kWeo/KRT8GepN8aTo0rysPjiQ3ihn412/IcZ4/Ygg08cA3lqqxgd5Ofd4kc9irPx8td39A/5K/pLWQ7m9M6n5hlbsM1wKCNm7nBz8vY+vWwIhPl8/jL/gh98JscOCsHLtOYaTLCQmPFuEgimLjK5LeRUJVM/vogGsjCJIzHYyza4AhayAa5Mj/LwzmFvya/0imyoXhq8ZK7ZlckUX5LutmGnowLedYIqO/Ol2hr+67NAtg0MKuaVtcAwXy48xd5dndf2T18DnOm3dl/sUnmNbnRj4nRkOH8tqLeOOqKapfrGqaBRbZj2jB1WjzV1+ATYhv1TpyzPxVuvhjXc4b/wsGAwbp+8QXlZb8Nf5Mv9tlx8wPnd24qf2x3ce66be8cZ7sHTrKeYJ1kjLzd6brgofGxXGV29s+AlzVLkxswD2xJWAw9lh8BA8sNxee0V/wwrsfYmM0V3naNn4MzBc68Rn6cgwPnb8xSw4EJsUgYOB6PbdHouZn0ZoIyAhUyZa4kwF5E3ZyYYG1seceOtnd9Yb6TrTbjnBXbZFzha5bVdOr5UXRQfm2TESvKS8XX+bJuq8wzLE22PU6zJqudbzKsKMs8f91iBn6NRkfOFb5ZfLb8d41D7Yfz3fkNtoTfSrk5qQnPtkZ/Hf6i0/nqsYi6Js6FP4X9rXmydZLniC0WF5UdZKzrFztRHh6bD+2cyXd+65oo5hT8V7vCek92rc0L/mQbfLzy9e5L0D/igPKTDV72jIX4bTEpmsokx/DMnyN+YkfV4Mu5wa+gV2OQZQ7feP2suyXEnVw8f2OGCcyK6vhN2F6ClgQHv1EaOxYzuVUJVc+5xqrJsabAzdFkiA1Ds2k8SnGJuV2zgmPNCO5gOdma4DBJe3+lyIzkmZIy2vx3uYffovjdDZRvBG9zp53W+E3cJBmkIudihba+LDcjyeOuoMdD/RkN09z1GHZoEVnfEUjYOXvMN/lEn5uvA0drmIYdzUaMkeKH/Cj19HmDf4iH2NCvD1zQpmar4GGcE7y9f81uvI4JOsVmFMtoh+Hh14nqChigLrk+4mLrcowvuDH0T99N3kFxB9mGnc03LloMfz/cLfNvdHlcMy4xDhMPlO+xtzFzPeD1Nf3qp8UbOYPHhuXIcaKrP6a+vdvcxVMbjJcx7zy8zGbBXWvyJ3cKfqTcEufw+8SPWBCL83Pg/I2ZFTC7q7u9g/+BdUgS6YW3z7959okaEyoSqiU5ezywVSCtabGxv5Z7/Z91vYGISVC/29i75SkmZW0a2vVWGNBe769L9E5um4+FU8cahpa8e7Ecvrri53GLj4QUq6GzFyjnC9rajsed+dDTzk87w7jif2UOW82XIUsWw7T55jnK9otlYtfxfcCdA2z+mpz2P20tbrMgKw7Ob9DT8Rn+yTiz+1v7u2rWTPhmsckQGzebg4F/tkvmDr0bTdHk/MRObXS4dgzgP2xIHJz8gMG6fvEty9N4GDYp7j1G4w+itvkTy/B43uHsMZyPDDGGWR7i3jCa+OR1GZrmFf3qY9WYbea4zqcea2/XtEmw+CGNm61tHW8+Rv/sPHB1cCTHBp8WTL5Uc3mO+JADl+DABRozBvoSgb4OnUWRGAXkVLyIRT/KPYcNUSe/R/5pQ25Nzck5cH68P44/5H/kIr+ff70Q823M2Zh9gqLwUUjedsdw92qbnK/zi43Z63B7j1hsyWwNgtul+7Br8eM0O26X78PivcUrXvsY659x2ooTGzMmp/lblRNj0Roxeywnn+/dlMliZ2O2teB57ZQFoTVk+gj2E+3+kSOn5AhlkU/Hc4CN2YmbEZLweBISM2JGDpAD5AA5QA40DrAxY2P2bjtmXGRMtOQAOUAOkAPkwHEcYGPGxoyNGTlADpAD5AA5QA5cCQfYmF1JIHhHcdwdBfEiXuQAOUAOkAOfkQNszNiY8S6JHCAHyAFygBwgB66EA2zMriQQn7Hrp0+8myUHyAFygBwgB47jABszNma8SyIHyAFygBwgB8iBK+EAG7MrCQTvKI67oyBexIscIAfIAXLgM3LgEzRme39QdJ+4u38NW99Td+QfR3Xvttu34Why9XftufcLfgvvEbQXZbv3JL7Glo/zl82PxjE25hWuu/i9Ep/wPkq0ff8VP6/UGf094Lva0jFw78C0d2FGfE7E/X0MjuMy+oFYv9+x5Kb5B5b9ezHhj9PKmIihxqWYfyJs38/n42JCO4gXOZA5wMbsgMLUXpR8ZGN2iNy3jNEEHWyypuLkf4X8fE3AuRepNBrutUAVrrtxei0+rfD6gi2L9BB5h4zJC/5ofAMeCa9/y9Kata0Xab/OjlM3Zkf7vhv3Lb9ibOU7YPR8515orxjiuu1rOXNjWfQl5GUjt2UPr503/sSbeL+eA2zMDkm+oThdBeFWbQoF4BD/dsecqQnYteP1RF+LWWo0VnHd0v16fFJBFgwOsuH1OtewqM5HfOJ3m/MeTdR7yDR73/2z2A3d9CfEfA3nZvd7rPEtfvPau/PlArmPPl0vry/TmEnSgi3+uWNhxabdbbYxcJep5G1jbP6Ph0d3J9qS3+Ny/1MeIcy5er7UuSw5YaL+78vNw+Pyo3jPY5U857mcPL0NfbcrJOT2rkd8JGmYBBKlefP6tCHfXcs1w24+PjFb0e+JXd7BwXHwGKaySc+hrGbnYXGCHUErdMidtGsQ7HIx6zhqLMXm/7f8r3LE8Og2Vj5Y0kTd33CnLcRIZeTrA3fcGVGZ4Kc9frYxB+rMHA42iQ9Olo/JNi9WuGW4yKfDzfgEsR5rz3w1+9qnYYM7RNEnv35sjZicaaPxdeaVfk38R844PGa83PrpPuK52g7DoOMadRn+qB/xc+MFP8MJ/ZrHaA8L7MSFWBCLz8CBizRmT7eQdDQ52ndL0va9PyYZyaxdx4TbCsosMi1pzu8SpHZuyozNj163QqgvwbakLyTPNo3Au2Rqidn0FMVp+IHNYCgsisf35T9nj8mERecKIZw3f20+2ojHMu75ZfmtxcEaGtCjdtj3bOMsoG1u+x7GRVugEK3GqcQImgrzyx6hje/NDuSG6hjyehzH94ZZKnAbuO7xVjHoTdnEp+mddkWMED+xyX8/SGeJc9Dj4hka9jVeFFgkvEZMxW5bd3AcZTy/LE86p8djzLH1YzJwjQguf5f728fO136tx9KvX5Nj3IW1EfxcxTaM803nuh1tnNnv4zjySOBfyyWBI4LZz8fl6eFXcRPV/Ek+jziAvzzH/2VIDnxIDlykMRuNjZIGknj12xpM7Hg8CIfzYzLvCf0nNlo5sbkkF5Oy6Cn1ipwt3XgtFMnhdyseot8KtxzrDp0lcLFnNB+QdFdtChigP3Jc3omjraYDbcZjuz4/XbFGfVU8e9wc5nqu0iF29QLr5HbdiEF13cWnkt8af8NeeakybRetfbrr3X4fe5Mt9gauoY02V2yFmOrNhX0v/TCsMU6ms13bw9PFaODdmwjRaTibjfIpthsP+/ksp7IN7FT/rVmxsfLp7becgPKzTzDf4Qr6yia1zzsY2wPlGUYVduOacenXcv8QduwU04YD8qHlm7mDJ9g4jsi8TV8AJ9XB78YvfpILH4EDl2nMNKlawpJPS9xFssYEXCajvSTqr4+ggCwsAHg8xqINIdHJ+Fa4xXbzQ8iPeuUY/bVjKIxaAEWGNCJTliTkufsCi2rDJixuKYGL32rLmq1Tx9Qd49K+2+Mn+ZzNC/gtNobCbphmnA/FaNrXMJ7NrStuUPTWdvPEFoeVzNnA1Qrm9NswnHhMHLqdA2+Lef9EXEBnbQ/O9TqNGxlPjNm0b9reZNr8+ZjT5B/ZmIEPnvuGadC30pjN9RRuMCQ2CcvetLs4iq/gA65XWPPKQ7W5wrbprtf1th3G7+ozxajrHzEwWx2WnUfxXPTF5vLzQ+6QVHzhOcz1X+v4/I1ZTDCugcFiUiSkNNeS/kzEKfmtFABN8n2Xws2pEp4WhFkE3IIRm6TI2udIjNCgQKPl5saxz4/LD7Dpx8PLepGpsBB58XzlzxhnuKGttgAwFmvHbWxsJuw7Ftnot8NccdgoqHK98gN9ra473NEH8/GIxgx1qb2ImcluzaVrzmQeNmE6d+pvuOB8i0kRy421UuM5m3qJSWoAKlvUz25D8rnAq8uwmDd/EBv0teHT7DCf8bqX73yK8Y222fUtvG2M2BznO2z79Wpdo4xSjvdn8j74m/TjPMEp5Js4XuywXdYqjjzHBo0c+LAcOH9jFhObfD90x0yTJ+7OtEQ+5xd32fZowyU6LBBhjiZALGItoY5HPXodimcv/je3tnNmCdYXJy0yGwVaC9vPX7N4ip6fv1xRlzEjGcdELYtQsUTbfUPz++Fuuf9T2dfwGLINs2EvFhXvV9sd8THRoie2O8ybDGtaXNHtCWQTo+Sbl1fZ4eWhD4aBbwS0iFa4GrYDD8PaeICyG5bmpz2ym9+n7lm0OwdlJzPqiN/X1oriM4u5+o6PVcN1r3uLF+Zjs9s3YHKu+e7sxibH/VkIxKmYF2xEjuCx2N78m/42O2S9eP67NSPyDU88tvgObM2vX0tc15t2pNwwY63zTLfb4ZtjMCbO7uJRZo5DLQdl8pgYkQMfgwPnb8wskdujvds7+NEwJu4OYCqUvYno82+efaMQE6cRsSXy+dgCdw/SHNVpY38t97KTZU1GkXybbCwSYru3S+zQZGt+yyfe8YaiVDUaLlk7G7utkPjNb7fTpDrMLyxg3Vb5DcywD/3xcfFY3i038W+BWYzRv37OGpSEeW/OVjHqhfQe/1epk2+YT/9GEVbZ3oeBz8BxfZeoje2NhOGzxVuTOeLhOSsYI/9Ufp9j+BytM/Cr7bZ6PT5u0ASu8iI3rik+lS/IfcOi4zb96/Gw/yWr130T6DniMfxxezfXZOdO8w9529ec8aRzqP2Hl614ttxTybN1aevE2aG+mg9B/uBCk13hGHnhxpgPg8ump8kbfO5Y8DtxIQc+Lgcu0Jh9XLA+L9FzE/k2X3vRfT5hrF1RPaFcFrLt7X5tNnyz8zZuWOxOzxHfyJme+bl3/TR+TX3vJo9rYZuzXNPE54NzgI3ZBw/gaZL/aRszLYBhh+DNdrIYXSzZvks8+w5q2jl87Xp0u1VVc3T6RvDNnH6Nr7t+Vr7z3EVi9Zr4cs7F8tw1cYSNGRdC+dj1VSTVoiGPEt9hh4WN2SdLWKdqlJqc+Bhw8ndedz8d4Lr/ZHxi8zk5Tyw+OhZszJigmaDJAXKAHCAHyAFy4Eo4wMbsSgLx0Tt82s+7VHKAHCAHyAFy4O0cYGPGxox3SeQAOUAOkAPkADlwJRxgY3YlgeBdxtvvMoghMSQHyAFygBz46BxgY8bGjHdJ5AA5QA6QA+QAOXAlHGBjdiWB+OgdPu3nXSo5QA6QA+QAOfB2DrAxY2PGuyRygBwgB8gBcoAcuBIOsDG7kkDwLuPtdxnEkBiSA+QAOUAOfHQOfILG7O1/tV7fSefeRReI/ZrX0rz3X+gef8wV3g1ZvLfwNH+1/VR/DDTgesqmuOMx38UYdfU/NHrSNxK09ze++a/Xyx/PtT/Kq8c+pv+5l2uLXyfUe0o83pvzBV/c+yTBF+W9vdcUP2GMJW+RMWPYeLLOo8grfjcc+UkukAOn4QAbsyLZJ3JpwXmHv2Z/iO61MZVNvTk5/V84v77GTIqpK57i+89f6cXWI5bW8BSFeYxxWL+94a/lxoUb9FRvOOi2O3+drVHmgd8rXaeQeyYZ8aZj+war4LCtl3RDE2JyJn8O48uBsaXNfCxHDnxYDrAxO4S8VRN0yLz3HLNq03sUlaKovadvB8guG7Nvv5YfP3H3w4pYt//2bvnvyhozbS5wt3atWVqNt/n4is81XQfgfw1NROLAlj/xmuL5a7n/U3M7yYVt7UMAACAASURBVP4gmFxDXGjDK9Yi+fVhm6j34PtlGjNJkvB4Ye4EWJKU5sIe50jyRKK3MTb/x8PjcgOPelqhe1zuf8r8OTc+2pg6lyUVx/6oyHTcPDyWOzFV8p7ncoPkbeg7cKngNt/jo5X5vWOR5k2Mpg3L8icUJLlmfs0mxWxdw93iYjpw3PfZ7FQ2jQJoc+enw+P2ZXF2S6JyPLFY+viPGJvu4K8uGrkmDVlxzdlgjxNVVsap8QS5FXFZlj9hrvGs1FO9yLuwsS181IXHWadxpdn70vht62mrCXR4zx3JFJd/i8Yq78wajyzGKzypfMRzK3b86XgZpo0fcye7sjNjZ7bZZ8DSCiTaY+f4yeJJDpADZ+DARRqzp9uZTH1ybUly/N7GCsDY5WjXR2K266kBsyLekm8riqAz/EbHClhL4q2YWHGzYoA2tXG56WlF2fT4IqU6hh/YDIbCYEVpFFCRYzKtmFgxLs7/Q9nBxlBsfj+/LL+VZFZAQZ7aYd+zjRMfxCuMi7YAoSMe1oSN2Dr9wY8e9zFW5FpjVjQ7o2BH/x9+zaYy2erjJzFvPEJuBX/VBrz+stw//AXbevyeX5angTuOz34OrjmfUS8ei/yX5ekZeT8bLOPywC3gsbouw7j2G7dgd+XP8x38dgt5ErH1PqzaERsz0ak8aU308EttgbWS7IdrBV8U88EnHMtj5COPyQdy4H04cJHGzAcTk7RP0DoOEyQej+SL80NTomMKmVZke/PjGrMqiZd6JSBbuvFaZYNcb42P6LeiIse6Q2dNnNgzmjQgwapNAQP0R46rJi/40eKDNuMx2NBjMBof+Y761oreynmUg8fTntkMpOuAh4snnN+3bcYkxlZscHILbiWbOj6taZy2N3+MP9b8dlwdfh7rKR/j0Y6NP1N2ZW+Iz4Yu7z/qCzLMR/1Eznvbxa5pvz+eTXWe4+3w12M89LutG7BL9M4bCS/DmtV8fdsXxJnHEVN+JyfIgbdw4DKNmRZLeFQ0drxCAZDkulpYLfA+gcZkvZrYoSjhHDwewKINkPDluoxvRVFsx+KLdskx+mvHffywRWRIoZ6yVovKhk1YAH0zgjsMa7Yarq14toIV49K+j0ei33BXBvwWG4tCuRaTaXeWb7qsgM6x3V6Hx7TBxXPgLHN2YlI0q06W8gBxweOJoedQi7v50Gw4tDFD+Xgsutp3xQia+GxvX08WE4eHrTXjpnxOjqCsVU4mzMCuzv/RQAI3RPY4P9Z8bcfAM+kyHKbNbazEOWDs1nDE0mI3OTR12jV+EhNygBx4Pw6cvzFzBVQcwwRYJEkcj8eWXPXcTMZYQBpxCpkyV4rSoTtmMnYtuYt+KXT2aXYlv6aNmdAdg+fH5QfY9OPhJTR7QIQKC9Edz8fia/bpOLMJY2A6ELe14zY2Nkn2PRVc063YxF2MpsMK9Hrxr3VGv5tu//tD36SKPvPffMbPjMket8zvHN8o13zPOryNMM/FEeMBY+zRPnDIOD5sQjl4HHnj+Iu8EpvXGh30J9vo8TH87bP7sWeH41CMX5AlY8VHaFYHDkNOtrON2fLTY55l8joxIQfIgddz4PyNGRYDS5zjzrxIki5RS7LE3Zn+I+Qxv358owXVFZMmx3YuXMFVfVY4Bdhm02jM9DoWhFYMbm7DXX8obKrDdipGUZiB06L189d85CJ65M8/wBwZM4qMw6XLEWzjf/0HvH8/3MF/pMAi2vAYsu2x3dCNccF5orfNtYZKF6PZ7jBvMmyc+jLkz508u64F1c2fWIkOX+SxcejjFB/Ay7gGOrdjEv2suIW4mA/Ijf4bM/dbK5yDxxBDsFF8bfxFuTjvZbmBxgO5nOe1WBnvXRMIPNEYKpdQZ8dcOCm/mzMO6zhr1BAzPK55Ivb9uL1zHHc2WczG+m5+m363HgyngF3iidk9PhFL4FjEY4yHMTw3eUAsiAU5cDIOnL8xG41Of1Rxewf/q7JIkqkBacVlPtryBQAL0ygelrThceIoTnYNilvbfbFHKb+We9nJsiZB7fEFqxVAK06WuL1dYosWErABG6HciDQ/rQiN+WanNR4oLxQl9R8LjBZR8wubz27rA/5vWfTHx6X5a3Lulpv4N8UsxmarLlhfVGfDazzI/yvT64H//Snyhv89FoknDW+Mcyr6OzEZ+juu+r3wKemAmOi1YWvzFWOaZIYYxceTjdMYj3Zs62H+T1trJO1/kWbdHo8gx63Lzmm1zXPf89ZzfuCneBQ86bg4/Iw7hqGzI3IorinkrNgs44O9qXg0md6Ghh3GqeFua5ufxIMcIAfejwMXaMzezxkS5bXY+oL6dhzrYrct9zVzXuvvNc07NfbTt9T0paZkjt2OTR+HTX4lq2iOD5JbybroufeLycfE40ieXDR2tJUc+/gcYGPGJBJ+5/d2UmtDUO3ebWDddlfijsfbbfkQSUp3ok7v+2kbM2lWcJc1x+a0+rL888Sy3SBwt+xS+FPveXhOnK8ZZzZmG83CNQfutLadaIdgPLLbbzJaI2aPQ+Vzf85pff78ielUjZI9gl9rVmYsGUNy9POvK8aYMX5vDrAxY2N2sh8svjdZKZ8JkRwgB8gBcuCzc4CNGRszNmbkADlADpAD5AA5cCUcYGN2JYH47HcA9I93ueQAOUAOkAPkwD4H2JixMeNdEjlADpAD5AA5QA5cCQfYmF1JIHgXsX8XQYyIETlADpAD5MBn5wAbMzZmvEsiB8gBcoAcIAfIgSvhABuzKwnEZ78DoH+8yyUHyAFygBwgB/Y5wMaMjRnvksgBcoAcIAfIAXLgSjjAxuxKAnHtdxHuhdF7r+YpMLU/Ujre6SjvQjzy7QCrGOkftt17J+L+XYrYuPZHVEvd4w/qvl13Kb/AcXXcsAX/aO/2X+pflVXodfEvrh8kS22s/gjtEX/g+NhYv4Kr6kt4G8P8I7rFO0dfi8ep51Uc6GvMx+8IvFdsFDziWokYxfePCq5ujK3/gPVBXFqxi3P38xwxun6M2JgduMA1obgXWF9/cF+/AHcS9yuKXdX0aLH4dgVNTedAZeM6hpd9t2eytWp6rFBfC28rGxX7Hb4duEbLWO1xtbTJ26M8dRj+Xe4fXq5vd6H0pcpT3r8St1XMZW7VnP5d7m8fl982r2i2FEdrxmxc//xa+bWKCc8dx8PPjRcbs5Ag1sjxtRLHTuLeK3YFpqmRuMKEvGZjzYkdjAoMajmvSzDJ1tWifFk7nc+XsHGPq4VNfq1ftgF3+O1xqvClnv9aTsi8tgub+JdsCzr2bNu7nuS/bt3UeFAWcbkuDlysMZOFPR9rweMNvdOCa+5OtS/258flh7trawmjyQNZbjHnufn9jChnPtbytuLjoXq8kjz44bb9NQlNH3HLX4tC9y3bB+QJMlC+tzfj4QuPyITiE+Ta40Y3JxS7Q2xeTeQpIdeYVvPnuR7bPxOfVQxcXPxu3ZQncrpM4NqIxwpGhuPktZcfk5/D7fZl8fqX5U9pa4tV0pFw9FggP5xee0dpNR/Oufjrugp2wE5IKV/mgDyPRY5f7TvEBWLt9EUcO1efHn7NfGM5xeH7fflPz8Na6PlDuWRzXE4xjD1nB0907IpvA69+/eGu2Tf0nBLf/ghxyM42OQyNE/8W5WTDxXxtn4mrAZfIF/mOHPTxF5kZ9zzG28DrxOOzcuAijVlMdL8fHpcnWdiaKLGYtcU6F3RPgJbUNNFLg2PNRxyPxA1zeyKYSaddn02ST14x0bTCHZu0afvTrdlkftn3mIBelqfnZqfqMN/s9xgjmYIv6vfUJbbcP/zVRyur2ELizL5km27CI0Y3pxc7fWwRi+3zS4sl6JPFs57IEeeNGKBOke30ooxcTDy/LA49LoC3t7HZYo2pFQ7PF4xBw3Bej3GH+FlsQbc1IoPruhYOtTXiUejqPFrnWOSAj5mLf187w1aJ70N7jLUu32ycNySzuZRzgOWm7z7WUV+N47zJaryBdet4JLh5+S3x99j23SJfDBpPEAtvUyHPcbnNd7x5E77AGViDPn7eJm+vb+JiPjHf/VrpfFMsW3wRD1v/N8/d137jOXNtm1/KBB9MNz/9+iYenw+P8zdmKRFOUMuFmZIYJPAigfkENGWXCRdl43FPBiLLEkySuzPeLxZMhC3Jm9w5LhfGZnNOtCVOqVlB3/1x8qXjOBMl2tvmujnou8YTY+J1mX+rNmMhRLkpBt4mZw/KOIpfgvm03dvo9akfzr5wvdRbxVTwqc+jfjxuGG7Zak1P5orMnVhVesWPNm+OExu9f+6awwHjvS3fN9M4z+va9h3HVvp8Q6mNGjbA8SYhxW3iYdydn3INbwRzc9/Goo143H12+O1dR5wqf2V+j7v64htfyzMufi62OzJXGqMcI7TTfuQ/+Sjj5w208XWuPc9TL2viz/PE4mtw4PyNmUtKCHKVIGwB2wLPSUwW/GwosAihbDnOczFpa+IajxAhueFOA+xe7Y23O/O5K4BJqPmq14ZMsQ/0jmOcJ36s4CQJdBVbj4VP0pXMjJWbE/VAQcBYYBJZTeRQGPcwleut0AgGiAvYG20bhQUwH9g2vM1mbyPINBlOdrjurk28vUw7H+Z2+XPssbbGdWJ62ueUK3q3OCbX+1oTfwY3/bpyXDBs9HNHPsQaueHX5p7viB0eT5+nv/WacNeTTYCB823KV/97s1dj0XxovCpsdFzJ12uZol/GbsQv+RJsHvFEnTsyVzBwGB4wphofz637Pf3wvOF54vE5OXD+xmwjecSFqqST8eOOFxNKC4jMscIq49cXd57rGplQiCLhk9yt8cnHQndPZmJ/K4CSzLHZWCdciZPIS3prGcmX1Oxle90cV1hQh8zz8TAc12x257cwNf+EC44Toh/s3cBAdCFXzDb7dLagTCs8zm/QabZZU2Pj++5M1lnh1Iq57XAcZ+tG7B0e+xwzvfZp2BwW/x35zpbIm8n9qNtsaJ+I+z6Obo33uIh8wzmvGZSPNsIx+uE4YWMQh0Kem7N33WTKJ8rF8/0Y7QIOCm4ufo7bOzKDHIuFw/CAMaJ/YF7FodsYx5g+fhbxXsGdWH18rM7fmPUmwN+NH/Mbs5nAhYAxibsEJAlwFMu9BCjX1wu3k6sLYmO8S7z2WyOz+2W5GXeuPmGqjtGEenKJnwMz9cvkyTj7jZkkWRinya5hm+fbLmS3wfmesXL+o3/Pd9DsNP3aiDjsw+Mlxa/b6vzdwHTM+bXc3MYkj/auY6BFevDB42tcmoUBZfax6LcrbnI96/X62nWTr/FA3xUvaBgCfjHZynyTpdeqotxlYmO4xTGVI3Nu7+bOWU/+Lv7qu9e/9hszZ3dl41hLwOdN331cDsIRcd59lNniNDELfwbCmpwhs3EWY+Ex9nEfu15uPvg+8Dglvj7PuBuZ5I9fFy5vdC5ITCv+3fTfuQ4e4e8GNfbgZ/yebg69HY5HYAfPE6fPyIELNGZQxGxbfiQpa2Lmdj0mvJhQJCCSIGYSDQnIJXif0DWYch11a7KYut0PknsxksePQ9/q+F6kzT8tdJaUwjXU3/2Zjz9nk5USpPo2bR02WYNgurv8OF+/9zE/Hl60oZsyZrNm+LjCjLgFDEa8HPYtTs4vxBETbZDnY2B2zaayLcoY23WM1Q/DRj4Bf8Fk2J8ar/hYLOoseO2awFigg43xfxNawVyxdT4q77xKuHnfMHlh7P3jdPEhNxoy18UfmocRU7jZWJWvNsbYmU5bH/Ld4jz5PeMUcd/BEbnaeebjDNzsPkRfkz/Amcm/ytbmy4yVjLlbnpxN0Z8+B/JNjFGyx7BfxTfGL+tck6nnTT6sUzk/14rFEDDApszmOY76eDfeVdwwPPiJa5jHn5sPF2rMPjeoXDSM7/EcaA0GNsfHyyDutnP5Nhxz48JYvC+3YjNMvN8Xb+J73fiyMbO7OX5e318y/0IxaTt53DF4a8E4GY5hx/etdnH+RiEk1sy9XyjXH5IL2JiREEwKF+BAayDw0Q+bskMSVhxDHDcangvwOsaH3xkfcuB4DrAxY/JiY0YOkAPkADlADpADV8IBNmZXEgjeVRx/V0HMiBk5QA6QA+TAZ+MAGzM2ZrxLIgfIAXKAHCAHyIEr4QAbsysJxGfr+OkP72LJAXKAHCAHyIHjOcDGjI0Z75LIAXKAHCAHyAFy4Eo4wMbsSgLBu4rj7yqIGTEjB8gBcoAc+GwcYGPGxox3SeQAOUAOkAPkADlwJRxgY3YlgfhsHT/94V0sOUAOkAPkADlwPAfYmLExO+guyb0zz73r7zDSpXfxhfdUvmnx6jv44rv3DrML9eb3/+3IGO/+e7tutONVx8MW/KO18F7XN/Lcxf+1stTG6g/pHvEKpGNj/QquKv7hr9HHP2Tr3xO5w5PX4nXsvIoD5btyj8B7xQbBYwsD5Yt7p2h4pyleC1i/iv8rdlLWlXCT8Tmozhpf2ZgdSBhNzMXLfA3Iz/W5k7hfUeyqpkeTd/Wy4wNjcmrMKxvXdVz23ZbJ1qrpsUJ9LbytbNRY7/DtLXzY42ppk7dHeeow/LvcP7wclWjXeXTCwln6Usn3/h1nm8xtzf9qY2a8C80Xvr80Yvq18msVE547joefGy82Zgcm/a+VOHYS916xKzBNjUQfc024rtlYJ4wdjAoMajmvSzDJ1tWifFk7nc+XsHGPq4VNnpOXbcAdfnucKnyp57+WEzKv7cIm/oFtcu3m9m75DxszuK42RVvj9zie36/vRoAxebeYXKwxk8X7X7/z+u8bPN6QRDrOf1/+c3eqPaE8Py4/3F1bSxhtHshyxMlznV4di3K+j616bys+HqrHa+IJfri7S01C03+8k9SiMPxf82VZ/gQZKN/bm2X4wiONARSfINeSq5sTit0hNotNaOMoGCkh15hW8+e5Hts/s8lZxcDFxT+CnPJETpcJXBt8WcHIcJz89fKHz52XDrfbl8XrX5Y/pa3hkZDtOCYcPRaIvdNra6+aD+dc/NX+YAcU4VK+zAF5Hoscv9p3iAvE2umLOHauPj38mnnFcorD13INrIUeJ+WSzennsv1zPQ+e6NgV3wZe/fpDz3tDzynxXRYfv2yTw9A48W9RTvoc3HiVuGq4dLx/26edj5/pesbdYzz5zPPE4rNz4CKNWUx0vx8elydZuJoosZi1xTqLiiSU7/NOTBO9JERrPuJ4JHCY25uRmXTa9dkk+eTlE5vI3R7/dGs2mV/2PSagl+XpudmpOkbCjskUfFG/EaeX5f7hr3bvq9hCYsy+ZJturOD3eW4OJtVYbJ9fWixBnyyi1URuDZAW2g1MUafIdnp9rFYxUH5ZHHpcAG9vY7PFGtPRdI3C6XXm6zHuEL9/Pbag2xqRwfWjbI14FLq63escixzwMXPx72tn2CrxfXhcfhd+uXljvWITY8fA503fPe7RnxpHuCnoNox17ngkuHn5rQA0bKThHvMGvxtPEAtvUyHPcbnNn3lIbGj6UObh+AK/h40xl3ibvL1+bFxLVhD9WjG+gVzno123z+zfdo6wefw0/Pn5ublw/sYsJcIJcLnY3QKHha9JJy9wVwggMZUJF2XjcZ8nsiw5Jrk74/3CQbuzzW1sO+8Tv8zLibbESWzewBbtSb7gjpn6jva2+Lg56LvqhKLqMN+JbdSFcrucGQNvk7MHi+kGBhk3wXza7q97fYqfsy9cL/VWMRVM6vOoH48nP9Zs3Y79xKrSK340js1xYqP3z11zOMwY135N+ev89Lq2fcexlT++odRGDRvgeJOQ4gb2Ji7LNbwRzM19ixXaiMcdK4ff3vVj8bVGt33W+Qt1VhjK9Zx3MIfkGO3jPnlsu5Pom28IURePPU7E4/Pjcf7GzCUlBLhKELHgYEJpcyVBYDPjCohLrHkuJm2dNx4hQnLDnYaxW9KTyMb4VoRAjtuBar7qI68hU+zD8XY8izEmNvR5LNRVbBHnKgFG7DNWDteoR4tbs7e0KxZDjAsUxkNi0AqN2Iu4gL3RtqELMA84m82+2IBMk+Fkh+vu2sTby7TzYW6XP8cea2tcJ6anfU65otd4hZ+GpVzvBVn8Gdz0nHFcMGz0c0c+xHpwdswzG/Z8R+zwePo8/a0bJ3c92QQYON+mfPW/N3s1Fs2HxqvCRseVfL2WKfplLMbNjjt2yZdg84gn6tyRuYKBw7DYKcXcOmKt9vl8Pa6ZjGHjtB3H8Ji4fAUOnL8x20gecbFrAGT8uOPFhNIIKnOssMr47aRmyb+TGxNkKEQx+Enu1vjkY7bb5Iv9rQBKMg/2HZgUTdb6joRfzMmXtIOT7XVzEDdnY0vyGA+zrYxtbNi2MBU9xgX7HLrB3oT99D1yxWyzT28jyDQ9zu9wfUVvrbPCqRVz2+Go53lfbKzav6Lfc2KfY6bXPg2bw+K/I3/NxrA7F3WbDe0Tcd/HsWoQRP7ALtmE8ifezgac4zhh4xGHQp6bs3fdZMonysXz/RjtMs72Txc/h/eOzCDHcHAY9vwxf1tpDaN87jeNJlNsHHFZ0Wtj+VnEn5i924/xz8238zdmtojhzui435j55iUmcZeAJAHaDoBLRp3UKUH6Jg+D4eTqAqiKQiXXfmtkdr8sN873X2NnQnWMJtQvPPFz7GCoXyZPxtlvzCTJwjhtVNvv9/L8+ahC9brfz+Ri4fxH3J7voDFu+rUxc9iHxxyKX7fV+buB6Zjza7m5jQkc7V3HQIv04IPHV2Ltiw3KrOIar2e9Xl+7boVH44G+K17QMAT8kIvZ1pUdsy4TG+UtjqkOmXN7N3fOerJ38e87N+aL2rPyGzNn92rjELDc9N2PPQhHxDnGOdnU4jQx+7vc37bfz5kvHkOxB+JmN4dDp4/72PUa170/TUeWufYbM7NJP5Mvk+M5fjN/eH/mHJHp8kbngp3H+Ds7ZJzEcPgY15bX0eZG3KsxPJdwhpjw2ufhxwUaMwGvLcJxhwULuBWzecflF39OYpI4ZhINO2Yuwee5MXlsP35sydL9AFgT4bR13B1G/7TQWSLc8N0SIT6u6E1cSpDq29Q9Majlx/n6vev58fCiDd2U0XGU6z02LrFj0g0YjHg57HuCR79cIwgLKsibmLYxakdqrmJsawwkcbX5EzfzT64JJsP+gxp5i6nZH/Q6O9u1KT+Mjf+bcMfWydVuQ8Jtxi4mbIy9f5wufjSeTzsBd7ihsHFjDcO1Vflq47whmHbF+G3FKY7dwRG52ouYjzNws/vguF6tScxXKrNhNrCI111s7pYnZ1P0x7gUZL4J35AXC26vxUzPg26LWcTQzo9P5yNgvJoDxN+KG4YHPwe2bMY+zc7YWkwv1Jhxka0FhOe/Kjdag4HNMbnwGi6cAse1Zuk19nDOITyOzfAhcziG3PqsHGBjxruPT3/38REWb70TyMR7bOxOhmPY8T3WDo4/grvEmjmYddhxgI0ZCeEIwYJyREF5A3daAwGPVPkY51U8JI7n4SvzAnEmB87HATZmbyiuJOr5iEqsiTU5QA6QA+TAV+AAGzM2Zq/aqfgKi4M+sgiQA+QAOUAOnJsDbMzYmLExIwfIAXKAHCAHyIEr4QAbsysJxLk7curjXSA5QA6QA+QAOXB9HGBjxsaMd0nkADlADpAD5AA5cCUcYGN2JYHgXcv13bUwJowJOUAOkAPkwLk5wMaMjRnvksgBcoAcIAfIAXLgSjjAxuxKAnHujpz6eBdIDpAD5AA5QA5cHwfYmH3Bxkz/KGd8n9814BDer3fqhLH7fr+DMQjvZ4R3iqrN+m7E+B7NSy7+Zm98/2V732a283Q4XdLn0+vW90ZKrG9f2jtXj1hDY+54V2TG/dR8fzd57t2f8keSP4Iv7d2j45Vn+rYB+APPxftA3w2/t+SZjrXP4a9/DZn/A805jo63EaPAA48t33v6Fv6wMTtwkSiBIzEPnPuWAH2puR+sMRuJyF50fUShPndcK/5aUvYN2+uT/Ll9Oqu+N3IzNrsN++suXtFmwbvZHQr4n8fl5uHvOzwGO907S9EX9SGs1aeHx+X31eXzQ9fioePizcrLcoM1TZvVyUltyuA6YvjnX2h0w82oYgxzz7pWry6OEff972zMDgwiibZPpjcvvjcWvz39PrG8xZ8qEUqimkltz5azXw9J98+/5sOPn790B2jYown2iv04cL0Of040/q3rP3PvdE3HqX01ecnmxKG3rKFD5p4Io8Dp5NeJOGK4ne6zyjMVboeOq+biOZRTYI844rHih3OXpe3GM4+8lgsXa8xkcfw3tvUhgLr44ZrrujtZnh+XH31uu9uX8zYHZLkFl+f+lwopyvm+2E6Ct/X7MndK6vEajOCHydJrSmqzF+XZHaldW/PFiG/jpq0i39tbyBDbxh1jxmUX0y3fesG32N48d/l/ZgLQIlfFy9kl49tiN1n5kYnHf/rUdDk9Px+X+1uP0x/nB+4C9CTz0Hk2sDIfQhISnrlElX2uYxL9w1h53yZ/1s4vi/enPXKbiSHaJN/vlidnd+ffWHN9zsNdW6v9vMP1G/LXdMincbPA9dn7PddTETdco50fEkfhRJxXra2Jm9fpuWTxrO32set6E1fDXM1RM54iY9oifhpWnlOD6yMGBSaBy7lpNH9MduQGxiTkC+V6jVX2AeT3XNtseVzuf0qMTE+Q53xD3L7PvBRyJK7tyD+Ha8GRiI9+T2safQn2Dj/amIwDxrJjX+QOz6PJDb9uDTPR1WU9o2392PEvj/MYRV3wvaqRmqvRJ9OP55rOgX3II5u2O50mm58zVy/LRRozJSgszt8Pj8uTBEvI5hZBCH7fPh2LdCxeI1ocj8HuCWAsyDZWfi/SAGnXZ7JHEsaCJXK3xz/dmk3ml31velHPU194MWHEhDICp37jAn5Z7vujhFVscTG4RR1wOQDTPd/GYh1N4rR100dnV4xPxLF9RxylGbDvUY8lv2Gbcs1i0mVHbozvyCM5jjHsctmkIAAAIABJREFUxc1xafq8GhP3CKjJNPtkjh2Lvqfn9qho7fz+2mk2Dpniv9orer2tY4ytt+FX9/12PvbxOHcuxWZqfO8xxTUeuOzlhXWnMZsxHuvBuB1kyRpt66LrRT9c/M2uyQeNGcRf7Yrzx/WYC2p5E9fIlzZ+Xm/fD+Vysi3y0/kauC7Xhh/L8vv5ZTzSi1yTZstsStj3GKgtGN9uy5pvwtspM+Io3yc3RWeTP+OU8nDBEe9HW8sa32+4xmyN99jFWA8Oh3WkfqOdfT5gKnarPpDpax744+LheeAw3xinGIF+xw/FB/TZ2jFsYV62+VdZn9vNRJZZ4e58AN08b/xrn+dvzDR55iAaeecC7oY6AuICkOuNuDjHkdAFPs7dTlBij8gy2Umus6vZiuM90VB3trmNrRahzMtYrRJ+A1tnj7MdbTsWUxkP80v9cD0WjJHUuo9oVymrwqhhL/5NXOpx8zqOtfkyx4pAPX9i2K6P3Q3ZHYKku4+J6fSfyDGx1ctsY7fOG1eHnYinYA3faywwVqIvfvf2qh4Xp2o8YonHU9a0pbouMgt+uLU9sUkYyDhno+lFXXjcr4c5GBv1G7BEXAf2Yb7GbewihgYnjB3ylVOFbY7roXlVXPyciS/63rkufhi+AVM/z8scfoY5CadN38ye+el1Rj7VNjidGJdum8iczd/UZfXDbQZU9oa85W0UeWhnYWMps9mRZcl8n4dcnrHGyfmJOvHYfIU1FOJlcVQMEw+aLNP/4+ERGmX02TDwOLu4rOg1/fy0WLXP8zdmjlBoTEWomFQjGVqBxUW3ToY8FxNqI6Y9foHPXnCj3L3xrRiAHHfnB4QfBV3sw/F2bIvUsFrBSYi/iq3N7Z9uXMYlJrLo+6pvTq7pRPk7PuJ8PIZF7RMZ4Nixa4UZdZod2IzleZZ8Gpc2MFZb9q6D/hU/LBGJP6ZbPwcfmr16zpJxx2HMGedX7IkFYXyX8cArs1GuD5mCG/gBMVCeOa7azUM9fvKptlP4NeMW8FA90EQ4+2ZsrchiLjCM19bF5FJh18Cq6UhrwDCznQaIm+oN86euvk6xCIosh2fHQH1dx9Sa0GSbaySab5X8gdXQD5wIzZ/45HxAPsBxsmXIDnEdccz2mV+ZfzUWLr4QF4v/5B/yBY7Vxu3mH33H46YD7Sq4VNjU5mXfLU67ecjJRJ1iS8Aa1xDEytkQ+ZvG+Vqc4izjxSaQU46p5PJc+o8z52/MQsKyxSOfmfCdDGMR4wJoCysuunUy5LlpQQOp0C45TnIDCd345GOhu5NR7K8eKTl5gbglTjIm6YXkgzLcos62bWKadMB8kYsFZ9hkCV8SiB0XtqFdSU+MNyajea0l9XzNCrcl/eijx7uaj/buXQdMVvwQfTGOiWM9Znp+rIFpB56PstQf0e3mdbvl9y94vtt4/xD+I0DVmGGMRny3GjPECo+nH9N2uX4gP5DP/XjKmbIHDpGXHf/VAhjilmIDOGAcBo/CWoi2yfdRxFKc0P4Ks3bOuJxsc41Z49lowgrchs3q88Q/2uzy5YqcZMuRvnmdsI5UX4VFaAggLuaXl4nY2jHoCXFHGYZhlgfzA/Y6f0WmXBNZJtd0zc8VfwUL5yeOk+MZwynLfMVPnIfn62OMLR4PHWIT1FAZYxwdY1Z4w+se8/M3Zp24PoDH/MbMky4S2xHGJUdcPB0ER265vr5InFwl18Z4J9fukM1u/1+UUa4eY8EEEoufAzP1y+SJL+u/pbHfMqT5Q0/GZRfTMbfwLfxuQ/XCbuGWj1WyGT5bMhoFNtrd4mGJQPUmO+E3JY4bflFYE+cSphu/l9DQtjYW/WgxiTJw3N/lHn7HNXFZOx/jIP40eYaHJT7FX+6gIYG2sb+WH+k3ROhHwwj5KjKbPGzMvGwf7+5jiovN7/LwOqyBicOMV+I1cG1rXaiswaUYi3yTE/12tmjhxdzR/RzycxPedoNsTh0ri9mxXG4xMdnGjYmxyW3xu1vux3/M8fEWvZ4/2S+VBb+VTDit8LDZ4PUZJlNnvB75JjyQMcHXwJ9ok/uNbMor3UdcH27tZ45qfAbv2nyXO3ZrXh0bW8NeVue+2DT89DrV33FtrhXFHH1xMsI4XHdyrByHmhO/xzh0n0vbo2x+v4IdMw2CLXDcsgfCwVbsXKRyPS9UWRQYfLcIkYTFXJdcB/lwGxiI2IknW81DX0/Itv08f6sQ/Lu9g2fz4VpYQG2Rgw09Qej5lCzmuGGTJQHDsMt3892CPBLTKN/5ZgsY7arlT8ygkDu7JN4BKyh0rajIj1FN191yEwqJw/L2pd6hGvPhf4RVScVxqdk1MY9JLfoc/LCYq0yz/9dyczt3rJzt4Pfa+Zl0TV4sqn59Rdt13YCeunDaGgQdt3fLjzGv+23/i1OxxaLTcbP/sabXcY01G72PW/xoDY9rMh2msFY3uVTEU9f2tN3lFckVkatO76/lfvd/ZVrDZP4LdhNXl2f6zsrgesFlxOzHw4v+r0iMcYsvyC85iHjhWjYbW3ySrBH/3rRgntJ8v+6bl5XX8Lhu9o6bgekL+pniMvJ6iKXDel5rvA/rFfyrrvv/eV5wSTEIMjf8WWu4mm5Yx0NG1ol8UN5YTJSn3V/H2YmnraeB/co6jT9pybU64tptVzx47OIZMLnAjhkDshWQT3ctFLhP519YUF/bv9iQxrWeC8inxSs2bifmiRReXwgj1vyO3CJe5+WDNnXWDJ6Y+xjXz3rMxoykSduopyN7v0vkAn1HjM+bcLe5wcas4dN2iN6zcWKjcSzvW0zc7hpz//vkJdyVI8avwpiNGYnzKuLUBTps18sWOJuyE+J7bDE69/iv2pi1oj8eNYbfWdZr5W2xYWP2NvzeIyaUyZicigNszNiYfaHGgYnjVImDcsglcoAcIAfehwNszNiYsTEjB8gBcoAcIAfIgSvhABuzKwkE7zze586DuBJXcoAcIAfIgY/EATZmbMx4l0QOkAPkADlADpADV8IBNmZXEoiP1M3TVt59kgPkADlADpAD78MBNmZszHiXRA6QA+QAOUAOkANXwgE2ZlcSCN55vM+dB3ElruQAOUAOkAMfiQNszNiY8S6JHCAHyAFygBwgB66EA2zMriQQ5+zm9XUZ4z1rV3Qn9WFeY1P8IV3EM73g99IYN3vTX6JfsfOj/vHS9+V1EXN73yLG/oL5xPsf7fXvuzxnvtnUVb2vUf8odfhL/a/KDfkP/9ofAbY3AChmFkf9xPdI8l2Pm7G7INc/u11szA4kly5g/hX7972jelXyPbzpOV3D0YqeJXdJEiJ7vnz4cJvOlWAq/lpR8g1b9u1cNp5bz+v5sPeGg/eNfxXL9kJpayRCUyM57s/jcv/8vna9Kn6HrvlDx+3l8yBniwMlznvyef19a8QXwZeN2YGB5iI9Q1IPSfNViX4jnltJ+DhdVfMixdAK4xmw2vCz9EWwdfY1H378/OVfm/WFXjr/ej5cX2PmfPlIMTx0zR86bnNd5HUruOENlls7HwnHTb+vMB/R3s0G9mKNmSwI21Z2BUMLCFxzu1Q9IT4/Lj/69nO72293iE3eWnHMc51eJQrK+b7YToK3FRdyPV4Xd/DDZOk1XfDTR0wMtoux7Uu7AzYMZCzK9/YWeLgkl3HZxXTLt38t+Vlsb567/D8zOaz66OyS8V7Wf9/i4xiPf9yxcnp+Pi73tx6nP84PlN0T+EPnWXpUlRN83rFAeX1HbTwysZhE/+y8+O59m/FdO78s3p/4ntIYB/l+tzyF4uNvQPqcB2nqpjyH67e4HsRvtBFxMNy838h/WR9ePmDS+SFxFHviPPV/xKrbDrlirnev3/HKcWL67Aq2xib7ZZyfenpMOveczajn5+Py9BAa5JX4+7VtGHRfxxpr+Cd8sBiifojtzE+Au8XEcvFaHEJem5wNeJscsafL+o226bFxpeeNNA45huu6zZu6Z97JuoKOPRvSdZDNa5uNhl8/xG0Pj4s0ZppcYHH+fnhcnoTYmixywpuLrC9GS74jEVgS2ViUluhsrhX9YUdMZvJ92uILlhBre/zTrdlkftn3mAxelqf+iEF1DPt6gRr2AZnV72mb2HL/8FcXxiq2mDhckjse0z3fZrysIZm2bvro7Go4uZegKz8Mx4brLD4+HlFP4xYk8ELWbOy6boiFX0gxht3PESvPndWY/HlcbnrcrAk17GSOHcu1p+cZ3+r8/tppNo654r/aK77M+Hi9nRvDL+Hg3+X+9nGxQupx7uNxZ87h3HGFddUa2qnfywtrQGVZMwLrwbgt10fMui3je9cNvnhfbZ1OW2JMJgd8fMWHtTga7yZPTQ/w2PLYsK3ZPud4fYrRGGs3aSBP8DCZGAvECWPQc+Hghs718pzOKg6rOanhPmR3XcM3FzOMaZtXj9vCJ+ozmUGeYtHOzYYaY9/mJY4YhvxkI/aOHDh/Y1Ysekt45SJwC9cnqCpxugTigItze4K0xO30tEUpsiyhJLk7482n9om6j0kcMs8nSJFX4iS+bmDr7HG2o23id7Yv+b6Ga6kf5VfJEXxEu0pZ1XxLvIhLPQ5xw+OGjcyxxFzPnxi26zOhx50V8Ln0Y9o8ZfomROxzTWnHfOu8cXXIRDxlPnxH/+cx2K364vfCbudfNR6xxOMpa+qvrovMvgbA/uEjctFdL2xx15EvzZZpx7QNMZs6C9lgh1svQafIqPTszZHrFl83VvRKDCyPgR1qr+gPO2KVfueni2nDwuk80CfVX8hSXdZYmn1jN9ka78AF1InH3V/EZ8YJ4riFkWGmtlgOKPy2cfxkU/bOHDh/Y1YsqraQwkI0x93CzglRksy4q4pb7iZDP/NcTEaaeCA5jKLbE4hLTKZnY/y8Y7VHlrjgm68+YYp9NhY/cZ4kixWcxMdVbCFBpXEZl11MNSaFjaV+lL/jI87HY4ijLyqAY8euFS/UOX2fc/M8i3fj0gbGasveddC/4ocVD7HJdHs+tAKu50LRHXPG+RV73NrBxl3GA6/MxlS8wA+IgfLMcdVuHurxYu8WrrOoyvyAh37vtpqdaAseu+uFLe56bJAOxFD1ZdkjJmY/Nh4jTuvrF/PLsbloszFTe5tvbW0c4GfkjeW7I31Sjgvmhgl+GiYhJrYuUp6DcXv4TBlz7U+OzXPVOImjNcByHeNSjee5bTyJz+vwOX9jVix6C15cFHreFYs6IZ6iMXN3cZjs+3FaoJIoLFHF8cnHbDf6XD1SsuvVZ4mT2JD0rpACklx7JAtFut/Rr2KadIBvItd2NwwTHW/yQ0NgY+wT7Up6mi/i+1qRn7hUxQeLUyvK6KPHuZqPWO5dB0xW/BB9094mO3Gs46LnrZAZVlY0+vkoS/0R3W5et1t+O4fnu4335e+cLHbdf4yR2OL8A7+HnYgVHk88p+1yPegbcg648XC2Fba46xn/ace0rW56vOw4z8Ux6LSGA4u/cWHkE5mzllss7njdxQBsB+zQpmhv4kohD+dXN4ClTOMHcg1sUr0JH7M/cAXH7eCjcp2eHV7BWPED84L4HWOV5ZvN/CQ2p+HA+RuzvuODiee435j5xF0tpCFbFvBoFHwyzUlBrvtFiSRziUkX8sZ4TCIyVu0wu1+WG0iqKFePV5KY+On9MnlCBPuNWUtmY5wm8fb7vTR/6Mm47GI65ha+lf8RYdq65aNP+NmXhuPa7kyLhyVR9TfZCXfDjhtxMYWiMGJouovrkNx9s5v9aHyPMnCc/x3XxGXtfIyD+NPkGR7GZcVfdi6Ag23sr+XHz8j/zA3kq8hs8gyXFgOU7ePdfUxxsfldHl5HXOO66s3t0OeuZ9snji3ewhGHj1un6xhW8Z3FHONYN5MeM2tuMSYNxynT8zPGwNvT5M3fvBV+7PoZ9GujBvY5nLttSabPSQ7nnZg2rjYcBwZOZ7AP5VW8LxrNpsNsRB8mF20NDRucHh8TW1/8JC6n4MAFGjMJXE9etrWNiVgX+Hyc4Rd0Tra7TcTBjRkkSLPL/UC2JQPZlh8L1RJWGh/8u72D/0gQrqHvVmiGvJkMtdHAYhpwGjatYOvmpyQ3Gych1SamUb7zLWNY/a9MtaXwMRbOxJMRy7b4W4EzrtwtN6HQOj23L/UOFdoxYhGKgiRkxduSdnHdJe3I05WYuxj+Wm5u5//Mc7aD32vnNRk4eaHpMPv6mMkXxNL8s+Qa/ZDzcx3IWvhxe7f8GPb18fa/OBVblNlxs//tqtc994x/7vGX8V5sHzFqNioe5fXC9jh/rF+w4RAMFYO1OT6OmdNgt3Gv+l+ZwzbjN+iDGFgcBYeZK32MNE7jP5n02O75idejfRHHwC2LndkWOSPXx7U1WT3PrI5bxadxbGLR165xxGzVz4gTctW4Hs91/JwcnjtFM0IZk0cXasymAQzGJ8dCEyiT29fgedEMuQK219B+8rXgsPC++sbKXzuIO1xnJ/9Bet6ZfEVcNmJ+UFw5/+Rx/Qi4szEj8d+R+H2nqLxbZZL7CAniOBvZmB2HV18DujuFO2KvWxvaSIQdxVfZw5wYdshfFw9iT9xeywE2ZkxCJ2zMeiNmj2jkk03ZCfG99kTHxuygRIyPCVce5x4kh7nrC62ta1/7tO+Ua5aNGZMbkxs5QA6QA+QAOUAOXAkH2JhdSSBO2W1TFu/eyAFygBwgB8iBj8kBNmZszHiXRA6QA+QAOUAOkANXwgE2ZlcSCN7ZfMw7G8aNcSMHyAFygBw4JQfYmLEx410SOUAOkAPkADlADlwJB9iYXUkgTtltUxbv3sgBcoAcIAfIgY/JATZmbMx4l0QOkAPkADlADpADV8IBNmZXEgje2XzMOxvGjXEjB8gBcoAcOCUH2Jh9wcbsav9C+Op7806z6N/82pvBlSt+tdA7Y4jJ5xR4+vedynshT/P6LrHtrH/cWF+J9Pa/3o/4lsf6x2kNo/gHnc+gf6yBI9Zk+oO6MzYuTq/mbnjnZfqj1v76eP+m+uKv4btYnW2v8ZtzuAP3Sg6wMTsQOL437YhEfCCmqfC8OjEfZtspGolmMxszweGteGrhi41YL+K+eO7Fd++NA3vzz3/9dfkE/WwNhcPpz+Ny/3x+X9I6juv/0HV96Lgg//fD3XL/x/xua3O+xDx8jw308918oXp/cXqc6zAOund953g2Z6/gABuzA0F7XSK1ZMHPgxLYKxPzQbJP0EhMPWzMBIs3NWbagNnOT1gfR/MAG5Yg68D1PWN7nvmvySduzkd6afmh8Tx03F5MUU6B0xZvHcb/liV+PzdPqO886/HacL5YY9buluXRRXh8IYtq9V2LPQE/Py4/+ph2d9PuHpMst4Dz3PzYBOV8X+zOydv6He6w6vEa5OCHydJrmizMd5TXE8Hwf6VwiV9BBsr39hYyMHH9y7jsYrrlW7/rtBjePHf54452w0dnlyzI1gCZrP++xUc1Hn98DCE4a1I1LH8+Lve3M6Y5Rii7N14PnWfpxdChMet2Pz386tztshAn93gl+hVjhH79Wu6V7zgmzEfZCUNMbCg3rDvhFNr7LWD1Jjw7Bx762r592Wnq+vjOGSuOLp7mc1gHxgGbo3EufPOPObs+yCsxN7g1lfggGKPNxg85Z+t88svJ+obrH8fH+JhMi2cbu7mbE+LpfC4aFo9Z9wdiVuWumXdex0mnM3F3TWY7P3UbJu0TZeKx48JuDLvMAqchx9UXbwPHEI+3cOAijZkmJkusmvAfl6eRPGcCs8I8F2BPXLaoRlK2orW1YMNcK/rDjpjoemIKxWGCvT3+6dZssoJn35uNM6G+LE/98YMmEfPNCuGwD4iufiNOL8v9w1/dMl7FFpOIS4ABlwMw3fNtxqvtqmBDtemjs6snZfRfC43h2HBFHKUI2veox5qOYVshy4q68W5+B+wVxxBDlTUbGdUtBdlsj/H687jc9HiZrmGXFvjph12fjULkeGELcCjyderpjSuMXY9rHnscnp1jhkdfexaraaPh7H0yPKftEQO/VkWezjF9Gh9cL9X878uMd7s+4ifzAaffzy/Lb1xPeow29PnwmFbXJcqQJt7sG/Mnh4YPYw7K7ziltWr4Wc7Z8FnnwlqKmHUeOhsjj/9Z3ol4tu8jvgE/jHeK0/B3S2a8Bn6H9ePkW8yCPbNR9ng0OwvcTQ4/+ZjynThw/sasSAi2UGWBzOTbF5tbRHGR5AVaLkQFL87tycsSgdPTdIsssyfJ3RlvPuXFnW1uY9r5kcyGzTlZlDjJ+A1snT3O9ohLti/57sgI80v9cL0syHK9+4h2lbIqjGZSnrjU4+b16jGczLFCVs+fGIbraPeIg8kS+8J4h1/RRBgnbRxigcd2XfRbkY+24Jgo1+3yTBzXOOu56TFEbCefDQPkwD4eEa+Sf87PKN9jmm0La7/CAeXLsXHU8EyfaEMR7xC35BPqG7JRphznXKBYq31wI7D2mBl1BHtEjrcJdTdulDiKrYUsbdyRk2PnsO0gGpeczh37nMyBEfJWbPY1xMm3OajHzulnnh+52LiNOnlMTE7PgfM3ZquLokhmsljcoq+ThS3ynFwQsDxXF3ovVrqAQ/LQR2g9ucQFvjc+PmrEXSNb7Ci/PQqxxx74acXNfFnBSbBaxdbm9k83LuMiCXgTU41JYaOTazpRvhzjPDvuPuJ8PIbk6YtDw2I+6rSkjDrNDmwk8jyT0fzewFhtCdeTraIfi2gY3wun6UQeRJ5p0sM1ILoqDK3pSrY0/0u5sWFci2vVuLjiv4dnjoeP44xRS/J+fGm72Go+F/bNORn7hGkxP62lgXtcj2Y72lzoxBimJig2RSYT5URO2Rj7bGPbjSTOs+shlwZ7cu5Ef0TGikzLO6/gZNKJ3B14W47onyPm4NewIcdm8gDGi2xrGiG3ZF7s+B3n8jt30E7EgfM3ZkVC0AXhEj0sop0EvNtEDKBiogmNzNZiLRLp5t1b8rHQ3e0S+1uSkMSXE4thg5+rRS3pBRwHDsHvoihtYpp0gG+aTLEhsWJgfu34KPMt8SY9zZdpWy4UE5d8zQqL7YBOORVG1XwcF66j3YqzYII4+PHTziYTi4ceGwYWM8RVcInXbZx8Jlu63eV5savHJuENcS2LcvPpMDxR1pY99TXEZ6wD50+Wj3Mi3irD4Zjnr+KoOBmfu70j5nbex3voA06gfXrd+WNyIT7FOh1Y9PijzF2fU7xjc5gxKWWKboel2Q6fpW/tOtrsMN+T2X1ex67rL3Sv+mG+QJxa3rC4gk+on8dsyE7MgfM3Zj3J4x3L74djfmPmF4ksstXdHVmUY5HlROMSgSY+LwsTn0sgGgSRtzI+JgO1w+x+WW7gbg3l6vFK0RU/B2ZOniQL/1uPMU4byoZtmj/0ZFx2MR1zeyMwfpTfMLFiLfip3nG9J3+cj4R2uLXihr5ovFbj6XWrXtSjmNmOmtmNzRMm3aKw6nwbH647u1s81huzMDeuBy2YyKuOw/C7fUeMkaee0+iTx0fmOL5FH9Rf42yP46vxzBwb3ECZwoWgd9gJHLLd5bnus3xcV1lmxDDPRxz9n2OYY92aco1TjLHdoBh/YhNknAF+xvjE5tj9TlHmB58SjuF6zHedd3O9TT8Hv5JMn3eO52TAQeQPPkR7kct4rR1PLuC4Ahf1E3k9Y2IYTgxy3AYWmLd4zMbsxBy4QGM2F8t4JDMWoyXmuX3tF3tOFrtNxChoeS4mX11wlpzGtvxcwFYMxOaRBFbHt2Qx/Lu9W25GYQnX0PfRyEz/LUn4IpBxGjZZoTcfunw33yXAjMsmplG+880S2bS/+l+ZaovZJ5/WqDq7Cp6MWLbkq8V3yLlbbsJvFJ2e4n8C+vn5x98TU8PbkngoBsluwdTGTj+GPBk/7P613NyGH4KH6/l/ZYr8ibHjpJvbxwyOhXnj/LRx2BXjGrl5FJ6ZY1bgUgwcbhDn28fl/uf02eeFXuAFk+6Ta8xGw7c2v7APYxowtTi6NXVkY1bmk94sjRi4+IQmJo4Nv61SfIPdEbPWsE6O6P8qtrXo/GlxqGQaFuiP2T+uIZahgLk4pXGBryP3tvXX/An5dKyLOnf7n5QAb2ze8L/7LDbFc8EH4zI/gSfE6E3N6oUaMwbwyyxibV6xSWHsj459KlhfC0NXvL90wi8ayC+Nx3uvg3ADRqzf1Gwcnfe+MN5szL5w8N9/ofS7Wd5xviGhtV2DtNvxhXjLxgwaEGnSi13F91/LYMMX4Z7fEf16/pNTl4s5G7MvkmTOs8iKxwpsyo5syvLjm6/clAlv2ZhdrkCcJ2/QP+JMDiAH2JixMTuyceACwgXEY/KBHCAHyAFy4JQcYGPGxoyNGTlADpAD5AA5QA5cCQfYmF1JIE7ZbVMW797IAXKAHCAHyIGPyQE2ZmzMeJdEDpAD5AA5QA6QA1fCATZmVxII3tl8zDsbxo1xIwfIAXKAHDglB9iYsTHjXRI5QA6QA+QAOUAOXAkH2JhdSSBO2W1TFu/eyAFygBwgB8iBj8kBNmZszHiXRA6QA+QAOUAOkANXwgE2ZlcSiHPe2egf7Azv4Tul/nf9g6AXfcVT++Ovh7wDsMbzil/xcsbXPslfVH/1H81ds3OXFz52J+Go0+nl1/E/4O59zb+j8tQV80z9CFjp2wzme0yv892UxR/P7u8/9vn0BNgLr4r8rHrsnZ7F9T/KR8OxvytUseUr8V69Ho9adwes7wPlsTE7EKiTJPIDdX00EkV73xUrVwxPtxCiD/p9T9fRRfQESfu9OHS0L6/H/iyN2U7sTsLRHR0lp/bid5I4XDHP/i0Lxl/jEJqMp4fH5fceTme/fiimh46r14++Bkqar4BJe+H8bLB0HL5VRRswfHH7lH8Srp8d72n/q9bRB7eXjdmBASS5D18o74rVexTDNQ7s6Tq6iL4tab9rgjral8P5EO3Gwhyv7X5fszPGKn4PMT4JR3d07PoSbNLxa/5VY1fUryBwAAAK/0lEQVTPXTHPAmZv4sKq/6/n5nrMDsX00HHZxtFsFRxIODkcd3S6sVnvus8ceylsLtaYKQltWxZfyiukHOe/L35bW7bAfy33z4/Ljz6mPRJpW+Nt3ryr8KDmufllwChnPm7xtn5fxqOsf/V41Rv8cI9udKHYljPK6+8FHP6v+bIsftt62iq6vb2FDLfwMy77mLZEYHG6ee4y/rSFnIpewMLHNPrs8fgTML55kNijT94WJ7v7eX/bsJ5xa3amZKe68BHAjFGTGxKgwzHgHu94tYjU858efnXOF7rxrvhf8NXhID4hH22dHIdVvVOBcgUTlLks7W5+YuW4bu+6NE7/fFwkHm6M4wfe9XdePfScIFgEzMcax+Lj5FkO8dhHjro1U8Yu4vt98Vz08uP6NO6ZXv00TDDG0b/gi+GWudv5p7KCLV3mNfDM/Le46fdVvAXzyHnkh999azIxF3UcNGf4XSgXb+Szwxt1BUyxKXQxy+NcrJOusJZErpNnvENbJi7KK+H+ARgaBw17fgqO1/nvIo2ZLgpIRr8fHpcnI2R/bt8AayS3ZDQKj5FwNDhG7jgeQe/Fxebagh92tOuTvLjAqxcpb49/ujWbrHDZ97hwX5an52ZnTFIxiQ0Sqd+4UF+W+4e/SrJVbJGAbuEHXHYxzRi3JDftcXZropvXLNHOmP5d7m/nowuPQcS46Z6NQbQlYKu6Y6M3OSF2TzvkvI95K64WN7leyDc+OUyX5ffzS/E4ppj/bdqgvkuxNk7GOP95XG56nM2Waf8JsDJfkCu92Zt6+lqAsetcz2OtiRvyNEaAscOxc9PwsBwBuv2aADmKHXwPsUscBZl17A7Dt+WPEOd/YY1DzFMcnf/SeIAPiFUY57kb9Ou86+BZXnPzhmZwYvCv+THWg8UfmpssD9dwnw+xFb5ovgJO+foT8B5zA6bDxthI+XE+n4U6gvFclVfkJR0LekTO7Yu/IQf/zOeM78yFYx2hHTy+WON2/sYsJcxJjrzIIulx0c1CiYRzCdcRK84NslOia4vIZCe5O+M90VF3W1Amd46DhTbslnmQKPr5Eie5toHt1BP8js1IL2Bon/O91IH++eRT2lpgN+xD+dU4vI7HhpnMsaRUzbdx4bcuTb/3I+MZYoTy5biI1fBL9W7MH/HLTey8WZhrReS6uKAt5iPig8d2XebsYVXJTZxBuxDD4G/Xi5zA44aVzDEMUFbXUdpTcD/5621J2O3FrtLrdKD8doxryHjg9GIcrAGo9Ng4hzvqi2t665phZRjPPHoOnkm8az3N5v/wxtzhaxzzvmX+IGf8WI1BKbPJzrJkvuFk9s2d4fE7MBcz1InHZr/Yl3O68UM/nTyZhz6ZHJAt478hru0a8q/k3eCVyeSni8MF8Tl/Y5ZIZ2QAoiEgbiFlgsaFvk7APBe3jHWePVrAz164oty98fFRhks4tluHuyO6+GDRDxssMezgJJitYmtz+6cbl3HZxNTNNblexsTqkJh2u4e/81HZlGN6rKj0xCa2uHkdv4OK3N5jkKBLORn8iVgMe2LMzP6d+coBTNphvN3to88r/ExFaNgWOLaDVRmDsPu0znXPC0t6swA2/6oYtuJdzI+YW66QPGG+yDmXNwR/j2Xya+BTxy6NTzq8fNOnvlnzG5vpyvbon/qBMZv2oU1+zQZboswL8szbaesCPjUOsL4xph2vyZ+9NRxwkPkJC9Pdxq5zsZBl8XMycZzwF2NnxzOGtibcp5Mn9hXrQPnc5aTx2U/kitNlPvDzYrtjVTzO35ilhGkLo1pkPcGOxZkJGhf6OgHzXLdIhdyQQCNYSe7W+ORjobsvBLG/6ZUFvbNgYQ7eDQ1bk96J7RgjMtxCzrZtYipz4x2f6p22I1aYRIcNMt5i6mwJBTVeM9tNP8rp2AwdNtb0FNezbQGLhCcm3YgjYB3wmDbtzRf9641ZtBdx1uPoK8bqtVhVMcCikDBCDIO/GoN2zvgbuTaxWilISV/HPdqZxnlbEDunU+dNLo9rUb7xa8TLyx/zrJneaqBRNh4nHxBbXCvbvPHr3XC9DM8ihxGndgw+Jv9brJEzWR7MD824yl+RKddQbrZrPb4eXxwnxwWXilzk9CEHYM24nUb0Q46rtQ/nhO+25pyuPVt4/SIN2/kbs75YsAnyz/iRyI3kk1C46PIiFcK5hCsEH4kzz/ULSq7jdnBP+J2YTq6e2xgfF5baYX69LDfQAKJcPYbFhAtIksbAzMlribb9xqzhNcYpHu33e2n+0JNxiQkKbWx3b/P3KmKjyoZHEG58stXH1I21+FnMNPlgTLp/dr1zafLDx8zHV64VugcO2Y+9XReU//vhbrnv//nB3eGq/1YEm/6RYOUa6G/zbOy0t40Pc+M6OjlWhmXjOWLseBp9CPFWbqCPeh34o9/RZ9Mrn5mbFkPkuHFy4CrrEwuXrlePH/LuoNgdiG+zYWeNw1pJtiOeeCw+KFaWRxpOgu+Pn7Hoel+Rpy2nCK6IOY7HY9HRvg+8D8QB+YJ5DHFvuQPtMB/tXNA9MLDrPd8Dv3wuir4U/kCObPhO2Wi34eA4pryKN2hep1srNt4+17gf4174rX6OOtJ0Tszr76XtZgs/L9KAeY61NS3nLtCYweKwbV5YWG1x2JYvJHAlTk7UQlAknFv4jvh5bkpYPenM7WxMgjK/2TX0rY5vC2PIub1r/5tUC3e4hr6PJmf6bwnRL0RLYHPcsMkSacDWzXcLP+OyianEIfh97P/KnAlEuDBxFbx+3N75/3XpdFX/09DPFxkDC+fn5N3U72MR/WiFo2OsSbCNL+Ur14p4OA5uzB/8xsJQjLe4fvu13Nz+ms26zHc2vAKrIbv7MbgZMB7nJ6Y11+W6NbwTR+HXjEEvrqh7yM/cbInMx83FXHEMeovY5TyxF7vI+4gvxirYN/yxG8fH5f7n1IdY+JwU5Lg80nxsMcc8NWNS8vTSPNP1PDmuccDYu4Zx+jL4tXPdr2GMScdL/Q+4xvigPePamqztxizxX2RbQ+VyA9gn54feed5hZTIG371PjlPp0fWU2dYTv18bDhdqzEiEayPCm+wJyfZNskaiIUfejONKgn+zXMbo1XfXriE8BY7XEOMjbYiNOfn4vrnu5Jw7BW8pYzOHsDEjQTYJsp80+51auoN732Szb9dX1992ufyd81fH5PL+n7ZIthiPnbGL5LLX8Owa7L48F86Sw6RpTruMX8T3i6yH02DLxuwDB+8sCzvh47fM9REDm7I3NrenWMyt2M1HPv5x4WW4cgq/PpeMUzVm+tME9/fQzoUTeca1dC6ufV09bMxS4/F1ycCEw9iTA+QAOUAOkAOX5QAbMzZmV7Dbc9lFwCRE/MkBcoAcIAeuhQNszNiYsTEjB8gBcoAcIAfIgSvhABuzKwnEtXTqtIN3jeQAOUAOkAPkwOU4wMaMjRnvksgBcoAcIAfIAXLgSjjAxuxKAsG7k8vdnRB7Yk8OkAPkADlwLRxgY8bGjHdJ5AA5QA6QA+QAOXAlHGBjdiWBuJZOnXbwrpEcIAfIAXKAHLgcB9iYsTHjXRI5QA6QA+QAOUAOXAkH2JhdSSB4d3K5uxNiT+zJAXKAHCAHroUDbMzYmPEuiRwgB8gBcoAcIAeuhANszK4kENfSqdMO3jWSA+QAOUAOkAOX4wAbMzZmvEsiB8gBcoAcIAfIgSvhABuzKwkE704ud3dC7Ik9OUAOkAPkwLVwgI0ZGzPeJZED5AA5QA6QA+TAlXDg/wPTHRFcMN5TcwAAAABJRU5ErkJggg==;" parent="1" vertex="1">
          <mxGeometry x="50" y="340" width="614" height="233" as="geometry" />
        </mxCell>
      </root>
    </mxGraphModel>
  </diagram>
  <diagram id="oUzfK5vddT4A4QtXEbGK" name="第 2 页">
    <mxGraphModel dx="1250" dy="535" grid="1" gridSize="10" guides="1" tooltips="1" connect="1" arrows="1" fold="1" page="1" pageScale="1" pageWidth="827" pageHeight="1169" math="0" shadow="0">
      <root>
        <mxCell id="PLgKFxTTBqm1OcTyOBkP-0" />
        <mxCell id="PLgKFxTTBqm1OcTyOBkP-1" parent="PLgKFxTTBqm1OcTyOBkP-0" />
        <mxCell id="PLgKFxTTBqm1OcTyOBkP-4" value="" style="edgeStyle=orthogonalEdgeStyle;rounded=0;orthogonalLoop=1;jettySize=auto;html=1;" edge="1" parent="PLgKFxTTBqm1OcTyOBkP-1" source="PLgKFxTTBqm1OcTyOBkP-2" target="PLgKFxTTBqm1OcTyOBkP-3">
          <mxGeometry relative="1" as="geometry" />
        </mxCell>
        <mxCell id="PLgKFxTTBqm1OcTyOBkP-2" value="start" style="rounded=0;whiteSpace=wrap;html=1;" vertex="1" parent="PLgKFxTTBqm1OcTyOBkP-1">
          <mxGeometry x="200" y="60" width="120" height="60" as="geometry" />
        </mxCell>
        <mxCell id="PLgKFxTTBqm1OcTyOBkP-6" value="" style="edgeStyle=orthogonalEdgeStyle;rounded=0;orthogonalLoop=1;jettySize=auto;html=1;" edge="1" parent="PLgKFxTTBqm1OcTyOBkP-1" source="PLgKFxTTBqm1OcTyOBkP-3" target="PLgKFxTTBqm1OcTyOBkP-5">
          <mxGeometry relative="1" as="geometry" />
        </mxCell>
        <mxCell id="PLgKFxTTBqm1OcTyOBkP-3" value="post 一个消息，将 flag 标记一下" style="rounded=0;whiteSpace=wrap;html=1;" vertex="1" parent="PLgKFxTTBqm1OcTyOBkP-1">
          <mxGeometry x="200" y="200" width="120" height="60" as="geometry" />
        </mxCell>
        <mxCell id="PLgKFxTTBqm1OcTyOBkP-8" value="" style="edgeStyle=orthogonalEdgeStyle;rounded=0;orthogonalLoop=1;jettySize=auto;html=1;" edge="1" parent="PLgKFxTTBqm1OcTyOBkP-1" source="PLgKFxTTBqm1OcTyOBkP-5" target="PLgKFxTTBqm1OcTyOBkP-7">
          <mxGeometry relative="1" as="geometry" />
        </mxCell>
        <mxCell id="PLgKFxTTBqm1OcTyOBkP-5" value="延时 5 s 去检测" style="whiteSpace=wrap;html=1;rounded=0;" vertex="1" parent="PLgKFxTTBqm1OcTyOBkP-1">
          <mxGeometry x="200" y="340" width="120" height="60" as="geometry" />
        </mxCell>
        <mxCell id="PLgKFxTTBqm1OcTyOBkP-10" value="" style="edgeStyle=orthogonalEdgeStyle;rounded=0;orthogonalLoop=1;jettySize=auto;html=1;" edge="1" parent="PLgKFxTTBqm1OcTyOBkP-1" source="PLgKFxTTBqm1OcTyOBkP-7" target="PLgKFxTTBqm1OcTyOBkP-9">
          <mxGeometry relative="1" as="geometry" />
        </mxCell>
        <mxCell id="PLgKFxTTBqm1OcTyOBkP-13" value="" style="edgeStyle=orthogonalEdgeStyle;rounded=0;orthogonalLoop=1;jettySize=auto;html=1;" edge="1" parent="PLgKFxTTBqm1OcTyOBkP-1" source="PLgKFxTTBqm1OcTyOBkP-7" target="PLgKFxTTBqm1OcTyOBkP-12">
          <mxGeometry relative="1" as="geometry" />
        </mxCell>
        <mxCell id="PLgKFxTTBqm1OcTyOBkP-7" value="flag 有没有被标记" style="rhombus;whiteSpace=wrap;html=1;rounded=0;" vertex="1" parent="PLgKFxTTBqm1OcTyOBkP-1">
          <mxGeometry x="200" y="470" width="120" height="80" as="geometry" />
        </mxCell>
        <mxCell id="PLgKFxTTBqm1OcTyOBkP-9" value="继续下一个循环" style="whiteSpace=wrap;html=1;rounded=0;" vertex="1" parent="PLgKFxTTBqm1OcTyOBkP-1">
          <mxGeometry x="200" y="640" width="120" height="60" as="geometry" />
        </mxCell>
        <mxCell id="PLgKFxTTBqm1OcTyOBkP-11" value="有" style="text;html=1;align=center;verticalAlign=middle;resizable=0;points=[];autosize=1;strokeColor=none;fillColor=none;" vertex="1" parent="PLgKFxTTBqm1OcTyOBkP-1">
          <mxGeometry x="265" y="570" width="30" height="20" as="geometry" />
        </mxCell>
        <mxCell id="PLgKFxTTBqm1OcTyOBkP-12" value="发生卡顿" style="whiteSpace=wrap;html=1;rounded=0;" vertex="1" parent="PLgKFxTTBqm1OcTyOBkP-1">
          <mxGeometry x="400" y="480" width="120" height="60" as="geometry" />
        </mxCell>
        <mxCell id="PLgKFxTTBqm1OcTyOBkP-16" value="没有" style="text;html=1;align=center;verticalAlign=middle;resizable=0;points=[];autosize=1;strokeColor=none;fillColor=none;" vertex="1" parent="PLgKFxTTBqm1OcTyOBkP-1">
          <mxGeometry x="335" y="480" width="40" height="20" as="geometry" />
        </mxCell>
      </root>
    </mxGraphModel>
  </diagram>
</mxfile>
